<svg overflow="hidden" xml:space="preserve" xmlns:xlink="http://www.w3.org/1999/xlink" xmlns="http://www.w3.org/2000/svg" height="351" width="624"><g><path fill="#FFFFFF" d="M0 0 624 0 624 351 0 351Z"></path><path fill-rule="evenodd" fill="#FFD966" stroke-miterlimit="8" stroke-width="0.650001" stroke="#172C51" d="M150.93 324.87 223.742 229.692 549.373 227.76 622.44 323.904 150.93 324.87Z"></path><path fill-rule="evenodd" fill="#84E53B" stroke-miterlimit="8" stroke-width="0.650001" stroke="#172C51" d="M223.86 228.93 274.088 159.362 498.716 157.95 549.12 228.224 223.86 228.93Z"></path><path fill-rule="evenodd" fill="#93E3FF" stroke-miterlimit="8" stroke-width="0.650001" stroke="#172C51" d="M274.56 158.34 387.075 7.8 499.59 158.34Z"></path><path fill-rule="evenodd" fill="none" stroke-miterlimit="8" stroke-width="2.4375" stroke="#5B9BD5" d="M152.49 324.87 387.465 8.19 622.44 324.87Z"></path><path transform="matrix(1 0 0 -1 224.055 229.795)" fill-rule="evenodd" fill="none" stroke-miterlimit="8" stroke-width="1.95" stroke="#4472C4" d="M0 0 325.307 0.669653"></path><path fill-rule="evenodd" fill="none" stroke-miterlimit="8" stroke-width="1.95" stroke="#4472C4" d="M277.875 158.535 499.726 158.535"></path><path fill-rule="evenodd" fill="#FFFFFF" stroke-miterlimit="8" stroke-width="2.1125" stroke="#5B9BD5" d="M268.905 255.645C268.905 249.614 273.794 244.725 279.825 244.725L492.375 244.725C498.404 244.725 503.295 249.614 503.295 255.645L503.295 299.325C503.295 305.356 498.404 310.245 492.375 310.245L279.825 310.245C273.794 310.245 268.905 305.356 268.905 299.325Z"></path><text transform="matrix(0.39 0 0 0.39 329.808 261)" font-size="30" font-weight="700" font-family="Calibri,Calibri_MSFontService,sans-serif">Tier </text><text transform="matrix(0.39 0 0 0.39 351.258 261)" font-size="30" font-weight="700" font-family="Calibri,Calibri_MSFontService,sans-serif">1</text><text transform="matrix(0.39 0 0 0.39 357.108 261)" font-size="30" font-weight="700" font-family="Calibri,Calibri_MSFontService,sans-serif">: </text><text transform="matrix(0.39 0 0 0.39 362.958 261)" font-size="30" font-weight="700" font-family="Calibri,Calibri_MSFontService,sans-serif">ALL students</text><text transform="matrix(0.39 0 0 0.39 274.868 278)" font-size="30" font-weight="400" font-family="Arial,Arial_MSFontService,sans-serif">•</text><text transform="matrix(0.39 0 0 0.39 289.493 278)" font-size="30" font-weight="400" font-family="Calibri,Calibri_MSFontService,sans-serif">Providing foundational skills and tools</text><text transform="matrix(0.39 0 0 0.39 274.868 292)" font-size="30" font-weight="400" font-family="Arial,Arial_MSFontService,sans-serif">•</text><text transform="matrix(0.39 0 0 0.39 289.493 292)" font-size="30" font-weight="400" font-family="Calibri,Calibri_MSFontService,sans-serif">To discover interests and build strengths</text><path fill-rule="evenodd" fill="#FFFFFF" stroke-miterlimit="8" stroke-width="2.1125" stroke="#5B9BD5" d="M269.685 174.135C269.685 168.104 274.574 163.215 280.605 163.215L491.595 163.215C497.624 163.215 502.515 168.104 502.515 174.135L502.515 217.815C502.515 223.846 497.624 228.735 491.595 228.735L280.605 228.735C274.574 228.735 269.685 223.846 269.685 217.815Z"></path><text transform="matrix(0.39 0 0 0.39 324.405 179)" font-size="30" font-weight="700" font-family="Calibri,Calibri_MSFontService,sans-serif">Tier </text><text transform="matrix(0.39 0 0 0.39 345.855 179)" font-size="30" font-weight="700" font-family="Calibri,Calibri_MSFontService,sans-serif">2</text><text transform="matrix(0.39 0 0 0.39 351.705 179)" font-size="30" font-weight="700" font-family="Calibri,Calibri_MSFontService,sans-serif">: </text><text transform="matrix(0.39 0 0 0.39 357.555 179)" font-size="30" font-weight="700" font-family="Calibri,Calibri_MSFontService,sans-serif">MANY students</text><text transform="matrix(0.39 0 0 0.39 273.076 198)" font-size="30" font-weight="400" font-family="Arial,Arial_MSFontService,sans-serif">•</text><text transform="matrix(0.39 0 0 0.39 287.701 198)" font-size="30" font-weight="400" font-family="Calibri,Calibri_MSFontService,sans-serif">Engaging and verifying interests</text><text transform="matrix(0.39 0 0 0.39 273.076 212)" font-size="30" font-weight="400" font-family="Arial,Arial_MSFontService,sans-serif">•</text><text transform="matrix(0.39 0 0 0.39 287.701 212)" font-size="30" font-weight="400" font-family="Calibri,Calibri_MSFontService,sans-serif">To explore interests and develop strengths</text><path fill-rule="evenodd" fill="#FFFFFF" stroke-miterlimit="8" stroke-width="2.1125" stroke="#5B9BD5" d="M252.135 100.555C252.135 94.0216 257.432 88.725 263.965 88.725L543.336 88.725C549.869 88.725 555.165 94.0216 555.165 100.555L555.165 147.875C555.165 154.408 549.869 159.705 543.336 159.705L263.965 159.705C257.432 159.705 252.135 154.408 252.135 147.875Z"></path><text transform="matrix(0.39 0 0 0.39 349.123 105)" font-size="30" font-weight="700" font-family="Calibri,Calibri_MSFontService,sans-serif">Tier </text><text transform="matrix(0.39 0 0 0.39 370.573 105)" font-size="30" font-weight="700" font-family="Calibri,Calibri_MSFontService,sans-serif">3</text><text transform="matrix(0.39 0 0 0.39 376.423 105)" font-size="30" font-weight="700" font-family="Calibri,Calibri_MSFontService,sans-serif">: </text><text transform="matrix(0.39 0 0 0.39 382.273 105)" font-size="30" font-weight="700" font-family="Calibri,Calibri_MSFontService,sans-serif">SOME students</text><text transform="matrix(0.39 0 0 0.39 253.938 127)" font-size="30" font-weight="400" font-family="Arial,Arial_MSFontService,sans-serif">•</text><text transform="matrix(0.39 0 0 0.39 268.563 127)" font-size="30" font-weight="400" font-family="Calibri,Calibri_MSFontService,sans-serif">Meeting the need for alternative opportunities</text><text transform="matrix(0.39 0 0 0.39 253.938 141)" font-size="30" font-weight="400" font-family="Arial,Arial_MSFontService,sans-serif">•</text><text transform="matrix(0.39 0 0 0.39 268.563 141)" font-size="30" font-weight="400" font-family="Calibri,Calibri_MSFontService,sans-serif">To challenge those ready to go at a level beyond their peers</text><text transform="matrix(0.39 0 0 0.39 15.979 33)" font-size="60" font-weight="700" font-family="Calibri,Calibri_MSFontService,sans-serif">Three</text><text transform="matrix(0.39 0 0 0.39 71.7783 33)" font-size="60" font-weight="700" font-family="Calibri,Calibri_MSFontService,sans-serif">-</text><text transform="matrix(0.39 0 0 0.39 78.9282 33)" font-size="60" font-weight="700" font-family="Calibri,Calibri_MSFontService,sans-serif">Tiered Talent Development</text><text transform="matrix(0.39 0 0 0.39 15.979 61)" font-size="60" font-weight="700" font-family="Calibri,Calibri_MSFontService,sans-serif">Framework</text></g></svg>